<svg xmlns="http://www.w3.org/2000/svg" viewBox="0 0 380 380"><defs><style>.cls-1{fill:#ff1a51;}.cls-2{fill:#ff0041;}.cls-3{fill:#d1002b;}</style></defs><title>weathr_sun</title><g id="Layer_2" data-name="Layer 2"><g id="Layer_2-2" data-name="Layer 2"><path class="cls-1" d="M190,370C90.75,370,10,289.25,10,190S90.75,10,190,10,370,90.75,370,190,289.25,370,190,370Z"/><path d="M190,20A170,170,0,1,1,20,190,170,170,0,0,1,190,20m0-20a190,190,0,0,0-74,365.06A190,190,0,0,0,264,14.94,188.83,188.83,0,0,0,190,0Z"/><circle class="cls-2" cx="190" cy="188" r="155"/><rect class="cls-3" x="64.51" y="88" width="134.49" height="28" rx="14" ry="14"/><rect class="cls-3" x="73.51" y="116" width="46.49" height="28"/><path class="cls-3" d="M124,144H26.3a169.27,169.27,0,0,0-5.35,28H124a14,14,0,0,0,0-28Z"/><rect class="cls-3" x="155.51" y="205" width="179.49" height="28" rx="14" ry="14"/><rect class="cls-3" x="189.51" y="233" width="64.49" height="28"/><rect class="cls-3" x="85" y="261" width="217" height="28" rx="14" ry="14"/><path class="cls-3" d="M351.89,138H271.51a14,14,0,0,0,0,28h86.8A168.93,168.93,0,0,0,351.89,138Z"/><rect class="cls-2" x="50" y="116" width="38" height="28" rx="14" ry="14"/><rect class="cls-2" x="109.51" y="116" width="53.49" height="28" rx="14" ry="14"/><rect class="cls-2" x="153" y="233" width="48" height="28" rx="14" ry="14"/><rect class="cls-2" x="240" y="233" width="48" height="28" rx="14" ry="14"/><rect class="cls-3" x="105" y="205" width="43" height="28" rx="14" ry="14"/><rect class="cls-3" x="208" y="88" width="60" height="28" rx="14" ry="14"/></g></g></svg>