<svg xmlns="http://www.w3.org/2000/svg" viewBox="0 -0.5 32 32" shape-rendering="crispEdges">
<metadata>Made with Pixels to Svg https://codepen.io/shshaw/pen/XbxvNj</metadata>
<path stroke="#000000" d="M12 2h8M10 3h2M20 3h2M8 4h2M22 4h2M7 5h1M24 5h1M6 6h1M25 6h1M5 7h1M26 7h1M4 8h1M27 8h1M4 9h1M27 9h1M3 10h1M28 10h1M3 11h1M28 11h1M2 12h1M29 12h1M2 13h1M29 13h1M2 14h1M29 14h1M2 15h1M29 15h1M2 16h1M29 16h1M2 17h1M29 17h1M2 18h1M29 18h1M2 19h1M29 19h1M3 20h1M28 20h1M3 21h1M28 21h1M4 22h1M27 22h1M4 23h1M27 23h1M5 24h1M26 24h1M6 25h1M25 25h1M7 26h1M24 26h1M8 27h2M22 27h2M10 28h2M20 28h2M12 29h8" />
<path stroke="#ffffff" d="M9 3h1M22 3h1M7 4h1M24 4h1M5 5h2M25 5h2M3 7h2M27 7h2M2 8h2M28 8h2M1 11h2M29 11h2M0 12h2M30 12h2M0 14h2M30 14h2M0 15h2M30 15h2M0 16h2M30 16h2M0 17h2M30 17h2M0 19h2M30 19h2M1 20h2M29 20h2M1 21h2M29 21h2M2 23h2M28 23h2M2 24h3M27 24h3M3 25h3M26 25h3M5 27h3M24 27h3M6 28h4M22 28h4M7 29h5M20 29h5M9 30h14M12 31h8" />
<path stroke="#ff1a51" d="M12 3h8M10 4h2M20 4h2M8 5h2M22 5h2M7 6h1M24 6h1M6 7h1M25 7h1M5 8h1M26 8h1M5 9h1M26 9h1M4 10h1M27 10h1M4 11h1M27 11h1M3 12h1M28 12h1M3 13h1M28 13h1M3 14h1M28 14h1M3 15h1M28 15h1M3 16h1M28 16h1M3 17h1M28 17h1M3 18h1M28 18h1M3 19h1M28 19h1M4 20h1M27 20h1M4 21h1M27 21h1M5 22h1M26 22h1M5 23h1M26 23h1M6 24h1M25 24h1M7 25h1M24 25h1M8 26h2M22 26h2M10 27h2M20 27h2M12 28h8" />
<path stroke="#ff0041" d="M12 4h8M10 5h12M8 6h5M16 6h1M18 6h6M7 7h18M6 8h20M11 9h5M22 9h4M12 10h2M23 10h1M25 10h2M10 11h5M21 11h6M4 12h3M9 12h19M15 13h13M16 14h1M20 14h1M22 14h1M25 14h3M14 15h14M4 16h24M4 17h24M4 18h24M4 19h5M14 19h6M26 19h2M6 20h1M15 20h1M17 20h1M5 21h3M13 21h6M25 21h2M6 22h15M23 22h3M6 23h10M7 24h2M10 24h1M13 24h1M8 25h7M10 26h12M12 27h8" />
<path stroke="#d1002b" d="M13 6h3M17 6h1M6 9h5M16 9h6M5 10h7M14 10h9M24 10h1M5 11h5M15 11h6M7 12h2M4 13h11M4 14h12M17 14h3M21 14h1M23 14h2M4 15h10M9 19h5M20 19h6M5 20h1M7 20h8M16 20h1M18 20h9M8 21h5M19 21h6M21 22h2M16 23h10M9 24h1M11 24h2M14 24h11M15 25h9" />
</svg>