<svg xmlns="http://www.w3.org/2000/svg" viewBox="0 0 603.33 172.45"><title>weathr_text</title><g id="Layer_2" data-name="Layer 2"><g id="Layer_1-2" data-name="Layer 1"><path d="M104.95,64.56c.34,11.69,1.65,21.1,2.79,32.91,1.06,8.84,2.34,18.05,2.57,26.57.32,5.33.78,10.06,1.05,15,0,.39.29,1,.35,1.56A26.83,26.83,0,0,1,111,154c-.36.43-.55.45-.55.45a8.7,8.7,0,0,0-.1,1l.06.59a.61.61,0,0,1-.24-.37,8.66,8.66,0,0,0-.1,1,13.09,13.09,0,0,0-2.86,1.27c-.18.22-.34.63-.73.67-.75.47-1.1.9-1.71.76a4,4,0,0,1-1.65-.64,2.38,2.38,0,0,0-1.08-.89c-.22-.18-.41-.16-.43-.36l-.65-.53a4.17,4.17,0,0,1-.72-1.32,12.11,12.11,0,0,0-.9-1.1c-.69-.93-1.94-1.6-2-2.39a11.79,11.79,0,0,1-.62-2.32c0-.39-.25-.57-.49-.95A24.27,24.27,0,0,1,94,144.69l0-.2a6.44,6.44,0,0,1-.54,2.63c.06-1.4-.07-2.78,0-4-1.9-3.19-4.55-5.92-6.62-8.9A149.94,149.94,0,0,1,75.45,114.9c-5.81-10.76-11.5-22.33-16.6-34-1.41,3.91-2.78,8.22-4,11.91-.44,1.63-.48,3.23-1.16,4.48-2.58,6.21-4.51,13-6.59,18.12-2.72,6.82-4.57,14.35-7.43,21.78-1.28,1.12-2.23,3.59-3.26,5.28-1.21,1.91-2.57,4.22-4.15,6.36a11.75,11.75,0,0,1-6.35,4.19,2.51,2.51,0,0,1-1.16.31A5.47,5.47,0,0,1,24.4,156a11.68,11.68,0,0,1-.66-2.72c-1,.1-1.59,0-2.38,0a8,8,0,0,1-2.17.21,43.26,43.26,0,0,0-.27,5.39c-4.77-4.11-6.56-10.29-8.09-17.89a2.5,2.5,0,0,0-.31-1.16,28.92,28.92,0,0,0-1.82-2.41l0-.2.22.18a4.32,4.32,0,0,0,1.67.83l0-.39c-.46-2.74-1.89-5.18-2.53-7.7-.44-2.54-.12-5.35-.41-8.3-.34-3.54-1.85-6.78-2.19-10.32C2.13,90.21-1.28,67.3.48,46.46c.92,1.3,1.09,3.07,2.13,3.57-.43-6.51-.68-15.23-.92-21.77,1.74,3.61,2.18,8.13,2.41,10.5-.41-.16-.47-.75-.53-1.34-.89,1.08.48,2.93.74,3.5,1-1.89.27-5.39.44-7.79,1.06.69.77,3.9,1.46,4.83.45-5.61,1.24-13.83.61-20.33,2.11,3.37,4.45,6.92,5.44,11,4.29,17.66,6,41.73,8.65,64.73.82,8.46,2,18.88,2.64,29.35.93-2.67,2.06-5.37,3-7.84,1.27-3.3,1.68-7.31,4.06-9.33.44-3.62,1.93-6.74,3.22-9.85C37.7,86.17,40,75.41,43,65.39c1.39-4.11,2.41-8,3.8-12.09-2.33-5.54-4.25-11.11-6.33-16.08.79-.08.37-.23.71-.86-2.1-3.17-3.42-6.62-5.18-10.42,2.46.75,2.39,4.14,4.37,6.13.34-2.62-2.34-5.74-3.71-9.58.08-1.2,1.65,2.62,2.35,3.75C35.28,18.06,32.27,11.6,30.74,4c3.28,3.06,4.05,7,6.68,9.49.47.75-.15-1.57.51-.84,4.93,7.87,9.85,15.54,14.39,23.44l5.83-19.83a3,3,0,0,0,1.27-3.3l-.16.41c-1,.29.12-.81.08-1.2.16-.41.06-1.4.63-1.65A11.68,11.68,0,0,1,63.4,11c3.26.88,3,1.9,4.1,3.38,1.19,2.07,3.21,4.46,3.72,5.6.05,8.74-1.71,17.25-3.09,25.53a4,4,0,0,1-1.5,2.93c.38,3.94-1.07,7.46-2.3,11.15C67.14,66,70.43,73.26,74,79.67c.45.55,1.18-.12,2,.4,3.7,7.39,7.24,13.21,11.82,21.51L90,104.95c-.74-7.68-1.47-15.16-2-22.65-1.29-15.37-3.6-33-.18-49.06.83.32-.5,1,.71,1.12.67-1.26,1-2.48,1.61-3.93.46-1.44,1.9-3,2.57-4.22.44-1.63.5-3,3.56-4.32.28-1.22,2.17-2.2,2.45-3.42,1.95-.39,2.48-1,4.2-1.8.23.37-.55.45.06.59,1.12-.71,1.44-1.53,3-1.88l-.65,1.45c1.56-.35,1-1.49,2.45-1.43-.14.61.45.55,1.67.83C103.26,32.73,104.82,48.88,104.95,64.56Z"/><path d="M117.74,44.78c3.74-10.29,9.1-10.58,13.91-15.07,2.71-2.42,5.93-3.43,9-5.64a55.09,55.09,0,0,1,12.06-6.66A45.17,45.17,0,0,1,160,14.85c1.81-.49,4-1.36,5.85-1.85,3.62-1,7.68.82,11.5-.15a37.57,37.57,0,0,1,7.21-1.38v.2c-.2,0-.4,0-.41.18a.61.61,0,0,0,.41-.17c1-.54,2.11,1.3,3.75.21-.91-1.44.44-.77,1-.34l.09,2c3.31,1,7-1.39,9.65.93.22-.38.24-.78.45-1,.2,0,.18.41,0,.39,0,.39,0,.39.18.41,4.17-.16,9-1.09,13.27-.05l-1.6.31c-2.36-.33-5.16.11-7.91-.24,2.64,2.32,4.89,1.06,8,2.42-2.29,2.05-5.33-.29-8.82,1.89,2.34.72,4.37-.15,5.57-.48,1.73.89,4.33.44,6.67,1.16.15.8-.41.18-.42.37.3,1.8.94.85,1.45,2.46-1.25,1.12-2.65,1.44-3.89,2.36.14,1,1-.14,1.34.87-1.48,1.7-4,0-5.86,2.05-.62.56-.92,2.33-1.54,2.69-2.05,1.27-4.15-.23-6.54,0-3,.43-6.41,1.23-9.78,1.44.54,1,1.22-.53,1.56.48a25.25,25.25,0,0,1-8.06,2.52c-2.59.25-5.2.9-7.6,1.36-2.82.83-5.42,1.28-8.63,2.09-1.6.31-2.87,1.82-4.49,2.33-5.69,2.65-11.57,5.1-16.94,9a25.24,25.24,0,0,1-.23,7.71c1.91,4.86,1.28,9,1.18,14.33l1-.54c7.28-2.77,12.4-5.65,19-7.46,1-.14,1.47-1.5,3-.23a4.33,4.33,0,0,0,2.71,1.14c1.2-.13,2-.68,3.93.62a23,23,0,0,1,.87,2.22c.37.42.77.44,1.51,1.27,1.55,4.25.44,2.8,0,2.78s-.33,2.36-1.29,1.91a9.44,9.44,0,0,1,.87,2.22c-1.25,1.12-1.56,3.08-3.15,3.19.7,1.63.41-.18,1.14.86-.82.55-1.31,2.11-2,3.46-.22.38-1-.45-1.19-.07-1.89,1.88-4.16,3.53-6.24,5.4-1.86,1.48-4.28,2.14-5.77,4-1.91-1.29-2.58.05-3.21.81-2.75-.35-5,1.7-8,1.93.58,7.36,1,14.51,1,21.84a52.4,52.4,0,0,1,8.14-3.91,45,45,0,0,1,7.27-2.56c1.81-.49,4-1.36,5.85-1.85,3.62-1,7.88.83,11.5-.15a37.27,37.27,0,0,1,7.21-1.38v.2c-.2,0-.2,0-.41.18.2,0,.39,0,.41-.18,1-.54,2.3,1.31,3.95.22-1.11-1.45.24-.78.81-.35l.29,2c3.12,1,6.81-1.4,9.46.92a3.33,3.33,0,0,0,.45-1,.62.62,0,0,1,.18.41h-.2c0,.4.18.41.18.41,4.17-.17,9-1.09,13.46.15l-1.79.1c-2.16-.32-5.16.11-7.71-.23,2.64,2.32,4.89,1.06,7.79,2.41-2.29,2.05-5.33-.29-8.63,2.1,2.15.52,4.38-.35,5.58-.68,1.54.88,4.33.44,6.47,1.15.15.8-.21.19-.42.38.29,2,1.13,1.05,1.45,2.46-1.25,1.12-2.46,1.45-3.7,2.37.13,1.2,1-.14,1.14.86-1.48,1.7-4,.18-5.86,2.05-.64.76-.92,2.33-1.54,2.69-1.85,1.28-4.16,0-6.54,0a73.3,73.3,0,0,1-9.59,1.45c.34,1,1.22-.53,1.56.48a26.37,26.37,0,0,1-8.26,2.51c-2.6.45-5,.91-7.61,1.56a79.19,79.19,0,0,0-8.44,2.11c-1.59.11-3.06,1.61-4.67,2.12-7.72,3.53-15.64,7.05-22.73,13.39-1.89,1.88-4.25,5.11-6.28,6a30.85,30.85,0,0,1-5.24,1.69c-.81.35-1.65,1.1-2.79.24-1.54-.88-2.77-3.52-4-2.4,0-.79.44-.77.66-1.15-.77-.44-1.26-2.25-2-3.08-.15-.8.21-.18.24-.78-.35-.81-1.09-1.84-.64-2.81-.54-1-1.26-2.25-2.06-2.1.27-1.37,0-2.77.25-4.54a25.5,25.5,0,0,1,4.18-7.49c-.14-1-.08-2.18-.22-3.18-.84-9.75-.3-23.19.22-32.47,0-3,.12-5.74.08-8.51a25.22,25.22,0,0,1-1.81-3.07c-1-2.63-.44-2.8-1.13-4.62.59,0,.48-1.56.54-2.54s1,.05,1.17.26c.79,0,1.24-.92,1.85-1.28l.1-1.78c.67-4.92.94-9.85,1.4-14.58a3.8,3.8,0,0,0-2,.48c-.81.35-1.65,1.1-3,.23-1.33-1.06-2.58-3.51-3.82-2.59,0-.59.23-.58.45-1-.77-.44-1.25-2.45-2-3.08,0-.79.42-.37.44-.77a3.17,3.17,0,0,1-.62-3c-.55-.82-1.27-2.05-2.07-1.9A34.89,34.89,0,0,1,117.74,44.78Zm70-12.74c.42-.37,1.36.47,1.61-.5C189,31.71,188,31.06,187.77,32Zm6,95.4c.41-.18,1.36.47,1.61-.51C194.95,127.31,194,126.46,193.75,127.44Z"/><path d="M305.53,133.65a61,61,0,0,1-.2,8.6v2.2c-.2.8-.2,1.4-.4,2.2a31.05,31.05,0,0,1-.8,4.2l-1.2,4-1.8,4.2c-1.4.2-1.8.8-3.2.8-6.8-.6-7.6-3.2-8.6-4.8-.8-1-2-2-2.2-3-.8-2.6.4-4.6.2-7.4a33.46,33.46,0,0,1-.4-7.6c0-1-1-1.6.2-2.4a4.68,4.68,0,0,1-.6-3.6,13.45,13.45,0,0,0,.2-4c0-.6-1-1-1.2-1.4,0-.6.6-1.6.6-2v-.2c-.8-.2-.8.8-1.2,0-1.4,1.2,0,2.2-.6,3.2-1-5-2-10.2-3.2-15.2l-22.6,1-2,1.4c-.2.6-.6,1.2-.8,1.8a105.67,105.67,0,0,1-15.4,27.6c-.2-1.2.6-3-.4-4-3,5.6-7.4,12.8-10.6,18,.2-4,2.2-7.8,3.2-9.8.4.2-.2.8-.2,1.4,1.6-.4,1-2.6,1-3.4-1.8,1-2.8,4.2-4.4,6-.8-1.2,1.2-3.4,1-4.8-3.4,4.4-8.8,10.2-11.8,15.4-.2-3.8-.4-7.8.8-11.8,2.6-8,6.4-17.2,10.4-26.8s8-19.8,11.6-30l1.8-5.4c.6-1.8,1.4-3.8,2-5.6l1.8-6.2,1.2-3a17.5,17.5,0,0,1,1-3c.6-2,1.2-4.2,2-6.2a17.5,17.5,0,0,1,1-3c.4-1,.6-2,1-3,1-3.2,2.2-6.2,3.2-9-.6-1.8-1.4-3.6-2-5.4,1-.4,0,1,1.2.2.2-1.4-.4-2.8-.6-4.4s0-3.6-.2-5.2c-.4-1.8-1.2-3,.8-6.2-.8-1.4.4-3.6-.2-5,1.4-1.8,1.4-2.8,2.4-4.8.4,0-.2.8.4.4a7.13,7.13,0,0,0,.4-2,2.17,2.17,0,0,1,.2-1c0-.4.2-.6.6-1.2a1.8,1.8,0,0,0,.2,1,1.8,1.8,0,0,1,.2,1,1.65,1.65,0,0,0,.4-1.8v-.8c0-.2.2-.4.6-.8.6.8,1,.4,2.2-.4,1.2,2.6,2.2,5,3.2,7.4l3,6.6c2,4.2,4,8.2,6.2,12.2,2,4,4.2,7.8,6.4,11.8,1,2,2,4,3,5.8.8,2,1.8,4,2.6,6,2.6,5.8,4.8,11.2,7,16.4a168.51,168.51,0,0,1,6,17c2.8,9.4,5,19.2,5.4,28.8,0,1.6.2,3,.2,4.6Zm-34.6-36a28.14,28.14,0,0,1,4-.2v.2c.6-.2,1,.8,2,.4-.2-.6.2-.4.4-.2a105.28,105.28,0,0,0-3.8-11.2,98.54,98.54,0,0,0-6-13.4,3.71,3.71,0,0,1-.4,1.4c-.8,3.4-.8,7-1.6,10.2-1.2,4.4-2.4,9-3.8,13.4,1-.2,2-.6,3-.8a15,15,0,0,1,3,0A8.67,8.67,0,0,0,270.93,97.65Zm9.6,11.2a2.9,2.9,0,0,1-.4-1.4,29.81,29.81,0,0,1-4.2-.4c0,.6.4,0,.6.4a10,10,0,0,1-2.4.4C276.13,108,278.33,108.45,280.53,108.85Zm-5.6-1.6c.2-.2.6.2.8-.2C275.53,107,275.13,106.65,274.93,107.25Zm2.6-8.4a.2.2,0,0,0,.2.2l-.2-.8Z"/><path d="M421.53,14.25c-6.4-1-10.6-1.4-16.2-2-.4.2-.4,1-.8,1.2l-2.6-.2c.2-1.6-.4-1.6-.6-2.2-.2-.2,0,1.6-.2,1.4v.4a30.51,30.51,0,0,1-6.2.2c-2.4,0-5,.2-7.8.2,0,.8-.6-.2-.6,1-1.8-2-3.8,0-5.8-.8.2,1-.4-.2-1,1-.4,0-.2-.2-.2-.8-5.8.6-11.6,1-16.4,2.2a19.37,19.37,0,0,1,0,3.4c0,1.4-.2,2.6-.2,3.6.2,1.8,0,2-.6,4.2a16.15,16.15,0,0,0-.2,5.4c.2,2,.8,4,.8,6a73.86,73.86,0,0,1,.2,9.4c-.2,3.2-.6,6.6-1,9.6-1,11.6-2.4,23.8-3.6,35.6-.2,1.6-.2,3-.4,4.4a32.66,32.66,0,0,1-.4,4.4c0,1.4-.2,2.8-.2,4.4-.2.6-.2,1.4-.4,2.2v2c-.4,3-.6,5.6-.8,8.6-.2,1.2-.2,2.6-.4,4a28.14,28.14,0,0,1-.2,4c-1-.2-.4,0-1.2.4,1,3,.8,6,1,9.6-2.6-1.4-.8-4-2-6.2-2,2-.2,5.4-.6,8.6-.4,1-.6-2.6-.8-3.6,0,3.8.6,7.2.6,10.4a40.39,40.39,0,0,1-.6,9.8c-2.4-3.4-2-7-4.2-9.6-.6-.6-.6,1.4-1,.4a164.53,164.53,0,0,1-5.8-20,23.9,23.9,0,0,1-1-5.2c-.2-1.8-.6-3.6-.8-5.4a61,61,0,0,1-.4-10.6c.2-3.8.2-8,.4-12.4a70,70,0,0,0,.6-13c0-.6-1.6-.6-2.2-1.4a62.76,62.76,0,0,0,.6-10.6c.2-3.6.2-7.4.4-11.6,0-2.4,0-5.2-.2-7.6a22.13,22.13,0,0,0-.4-3.8,29.42,29.42,0,0,1-.6-3.8c-.2-2.6-.6-5.2-.6-7.8a45.66,45.66,0,0,1,0-7.4,26.18,26.18,0,0,1,.8-4.2c-2.8.6-5.8,2.2-7.8,2.6-.2,1,.6.4.2,1-.2,0-.2.2-.2.6-.4-.2,0-.8-.4-1.6-2.4,1.4-3.6,1.4-5.2,3.2.4-1.2-.2,0-.4-.4-.2.6-.4,2-1.2,2.2-.4-1.2.6-.8.8-1.8-1.8.4-3.4.4-5,3.4.6,1.2,1-.6,1,.8-.6,1.2-1.4,1.8-2.2,1.2,0-.2.2-.2.2-.6,0,.6-1.4.6-1.2,2.4-.6-1-1-.4-1,1.4-.6-.4-1-.2-1.2-1-.2.4,0,.6-.2.8.6,1.4.8,1,2,.6,0-.8-.2-.6-.2-1.6.4.2.2,1,.6,1.2,1.2-.4,1-1.2,2-1.2,0,2-1.2,1.6-2,2a4.39,4.39,0,0,1-.6,1.6c0,.6-.2-.4-.2-1-1.2.6-1,2-1,3.2-.4-.2-.6-.8-.4-1.6-1.2.8-2.6.2-2.4,3.6-.2-.2-.2-.8-.4-.4,0,1.2-1.2-.4-1.2,1.8-.6-1.2-1.4.4-1.8.8l-.2-1.4-1.8,1.8c.6,1.2,1.2-1,1.8-.8-1.4,2.6-3,3.8-4.8,5.8a13.08,13.08,0,0,1,3-4c-.2-.8-.4.6-.8-.2-.6,1.4-2.2,3-2.6,2.4-.2,1.8-1.2,2-2.2,3.4-.4-.6.2-.8.2-1.2-.2-.8-.4.8-.6-.4.6-.2.6-.4.8.4-.2-1.4.6-.2.2-1.6.4-.2.4.4.4,1,0-1,0-1.8.4-1.4-.2-1.6-1.2-.4-1.2.4a1.43,1.43,0,0,0-1.8,1c-.2,0-.4-.8-.4-1.4,0,.8-1.2-.6-1.2-1.6-.8-.8-1-.4-1.8-1,.4-1-.2-.4,0-1.6a3.3,3.3,0,0,0-1-1.2c-.4-1.4.2-1.4,0-2.2-.4.2,0-1.4-.6-.6,0-1,.2-1.4-.6-1.6-.2-1,.6-.8.2-1.4-.2-1-.4-1.4-.6-2.2-.2-.6,0-.6-.2-1.6a24.79,24.79,0,0,1,6.6-9.6,73.92,73.92,0,0,1,14.2-9.6,43.55,43.55,0,0,1,10-4c11.4-3.6,17.4-5.8,31.2-8.2,3-.6,6-1.2,9-1.6a29.54,29.54,0,0,1,9.2-1c2.6.2-.4.8-1,.8l-8.2,1a37.77,37.77,0,0,0-8,1.6,4.11,4.11,0,0,0,2.2,0c-4.2,2-10.2,2.2-14.8,3.4,0-1,.6-.2,1-.6-2-.8-3.2.8-5.4.6.6,1.4,1.4-.2,2.6.2.4,0,.6-.2.6.2h-.6c-4.4,1.8-9,2.4-12.8,4.8,3-.6,6.4-.8,9.8-3a.38.38,0,0,0,0,.6c2.8-.8,5.8-1.2,8.4-2-3.6,1.6-7.4,2.2-11.2,3.6,2,.4,4.2-.8,6.6-.8.2.2.2-.6.2-1,1.6.8,3.4.2,4.8-.2.6-.2,1.2-.2,1.6-.4.8-.2,1,0,1,.2a.73.73,0,0,0,.6-.2l.4-1a2.67,2.67,0,0,0-.2,1c11.6-1.6,22.2-3.6,36-3.8a6.63,6.63,0,0,0,2,0c.6,0,1.4.6,2,.6,1.8,0,3.8-1.6,5,.6.6-.4,1.8.2,1,.4-2.2.6-4.2-.2-5.8,0-3.6.2-7,.2-10.4.2l-9.8.6c5.6,1.2,11-.8,16-.4,2.2.2,5,0,7.2.4a20.91,20.91,0,0,0,7.2,1c2.2.2,4.6.2,7,.4l7.4.6a24,24,0,0,1,7.2,2.6c-.6.6-1.2.4-1.4.6,1.2.8,4.2.4,5.6,2.2a46.06,46.06,0,0,0-5.6-1.2C421.33,14.05,421.33,14.25,421.53,14.25Zm-117,31.6c-.2,0-.2,0-.4-.4-.8,0-.8,1.2-1.4,1.4-.6,0,0,2,0,1,.2.6.2.8.4.8,0-1-.4-1-.4-1.8.2.6.4,1.2.6,1.2,0-.6.4-2,1-.8a1.65,1.65,0,0,1,0-1.4C304.33,46.45,304.53,46.45,304.53,45.85Zm5-4.2a.73.73,0,0,1-.2-.6s-.4,0-.4-.2c-.2.2-.2,1-.6,1.2,0-.6-.4-.4-.4-1,0,2.6-3,1-2.4,3.8.4-.4.4-.4,1,0-.4-1.8.4-.4.4-1.6,0,0,0,.4.2.4.6-.4.4-1,1-.6C308.13,41.45,308.93,42.65,309.53,41.65Zm-.2,1.4c0,.6-1,.2-1,1C308.53,44.45,309.53,44.05,309.33,43.05Zm1.6-1.8c-.2.6-1,.6-1,1.8C310.33,42.85,311.53,42.25,310.93,41.25Zm2.8-3c0-.8-.4-1-.8-1.8h-.6c.2,1.2-.2,1.2-.4,1.4a2.89,2.89,0,0,1-.4-1.4c0-.2.2-.2.2-.4-.2.2-.2.2-.2.4,0,1-.2,1.8.2,2.4-.4-.6-.2.4-.4.6.2.2,1.4-.2.4-.6C312.73,39.25,312.73,37.85,313.73,38.25Zm19.6-26.2c.2.4,2.2.4,2.2-.8-.6.2-.8.2-1,.4Zm11.4-6.6c1,1.2,3,0,3.8-.6C347.13,4.85,346.13,5.45,344.73,5.45Zm6.8-.8c.6-.6,3.2-.8,1.8-.8C352.93,3.85,351.73,3.45,351.53,4.65Zm7-1.4c-.2,0-.2.2-.4.2Zm43.2,9.6q-.6.3-.6,0Zm.4-.2a2.45,2.45,0,0,0,1,.4C403.33,12.05,402.13,12.25,402.13,12.65Z"/><path d="M487.73,99.45l-11.6-.4a11.32,11.32,0,0,1,2.6,1.6c-4-.6-9.4-1.2-14-2h-2.2a2.53,2.53,0,0,0,.2,1.2c.4.4.8.6.8.8h-.8a91.05,91.05,0,0,1,1.8,12.6c.6,5.8.2,11.6,2,16.4-.4,0-.4-.4-.8-.4,1.2,4,1.2,8.2,2,12.4,1.4,7,2,14.2,3,19.8a40.87,40.87,0,0,0-.2,11c-2.8-3.4-3.8-8.8-5.6-12.8-.8.2.8,1-.4,1-.6-.8-.2-1-.4-2,.8,0,.4,1,1.2,1,.2-1.2-1.8-1.4-1.2-2.2.4.2.2.4.4.6,1-.8-1.2-.8-.8-1.6.6-.4.8-.2.4-1.6-.6.2,0,.8-.6,1-.6-1.6-1.8-3.2-2.2-5.2,1.2.2.2,1.4.8,1.6.4-1.6-.4-2.8-.8-4.4-.6.6.6,1.2.2,2-1.2-1-.2-2.8-.4-3.6-.4,0-.2.4-.2.6-.6-3.2-2.4-7.8-2.8-12.6-.4,1.2.2,3.2.6,4.6-1-.4-1-1.6-.8-2.8-1.6-1-.6-2.8-.8-4.2a28.4,28.4,0,0,1-1.4-4.4c.4,7,2.4,12.6,3,20.2-3-4.4-2-11.2-4-16-1.6,2.4.4,7.6.8,11.2,1.2,7.6,3.8,16,4.2,23.2-1.4-3.8-2-9-3.2-12.6-2.8-15-5.4-29.6-7.8-43.6,0-1-1.2-1.6-.2-2.6-.6-2.4-1.2-4.6-1.6-6.8-9.2-.8-18.2-1.8-27.4-2.4v.4c.2,1.4.6,2.8.8,4.2a13.29,13.29,0,0,1-.2,8.8c-1.2,0,.2-1.4-1.2-1.2a31.56,31.56,0,0,1,1.2,9.6c.2,2.4,2.6,4.4,1.4,6.6-.2.6-2.4,1.4-3,2.2-2.2,2,.2,4.2-1.8,6-1.4-.2.2-1-1.2-1.2-1,1.4-1.2,2.8-2.6,4-2-.2-1-1-3.4-1-.2,0,.8.4-.4.4-1.2-2-1.2-4.6-2.6-5.8.2-1,1-3.2-.4-5a5.79,5.79,0,0,0-.4,4.4c.2,1.4.6,2.6-.6,3.8-2-2.6-.8-4.8-4.2-6.6.8,2.2.6,4.8,1.4,6.8l.2,1.4a12.3,12.3,0,0,1-1.8-5.8c-.2-2-.6-3.8-.8-5.6h-.6v.2s-.4.2-.4,0a4.35,4.35,0,0,1,1-.6c-2-.8-2.2-2.2-2.2-3.6-.4-1.4-.4-3-1.4-4l-2.6.6c-.6-.4-2-1.2.2-.8,1-1.8-1.6-2-1.4-3a.2.2,0,0,0-.2.2,19.12,19.12,0,0,1-.6-6c0-1.6-1.2-3-2.2-4.2-1-1.4-2-2.6-2-4a8.19,8.19,0,0,1-.2-2.2c-6.2.4-11.4,1-16.6-1.6h-.6c.2,0,.4,0,.4-.2h-.6a27,27,0,0,0,6.4-3.6,22.21,22.21,0,0,1,6-3.4,41.42,41.42,0,0,0-12.2,1c2.2-2,4.8-2.2,8.8-3.6a29,29,0,0,1,7.4-2.2,70.74,70.74,0,0,1,.4-9.2,16.31,16.31,0,0,0,0-5.4,16.28,16.28,0,0,1,0-5.4c.6-3.6-.4-6.2-.4-9.8a31.31,31.31,0,0,1,.4-5.8c.6-2.2,1.2-4.8,2.2-8.2,1.4-2.2,2.4-3.2,3.4-5,.2.2.4.4.6.4a1.81,1.81,0,0,0,1-.2,10.75,10.75,0,0,1,2-.6c.2-1.6,2-2.2,3.2-2.4.4-.6-.6-.6,0-1.4,1,.2,1.8-.4,2.6-.6.8-.4,1.6-1,2.4-.8,0-.4-.4-.6.2-1.4.4,2.2,4,.6,6.2,1,2,0,2.2,1.8,2.6,2.6l1.8,3.2a22.2,22.2,0,0,1,1.4,3.2c1,2.8,0,7.6-.4,11.2-.6,11.6.8,21.2,1.6,30.8v.6c2.6.2,4.8.2,7,.2,6.6.4,13.2,1,19.6,1.8l-1.2-9.2c-.4-3.2-.2-6.2-.6-9.4-1.2-7.8-1.4-18,1-27a83.37,83.37,0,0,1,3.2-9c1.6-3.8,1.6-8.6,7-10.2s13.4,0,15,2.6c1.8,3-.6,6,.2,8.6-1.2.2-1,.2-.8,1.2-1.2-.8-1.2,1.2-1.2,1.8a12.16,12.16,0,0,0-1.8,3.2c.4.2,1,.2.8,1-.4,0-.4,0-.4-.2s.2-.2.2-.4a.7.7,0,0,0-.2.4c-1.6,2.6-3,5.2-2.8,8,0,2.6-2.2,6.2-2.2,9.8,0,1.6,1,4.2-.4,5.8.4.2.6.2.8.4-1.2,4.8,0,9.4,0,12.8-1,3,0,8,.6,12.4a108.19,108.19,0,0,1,18.6,5.2c3.6,1.6,6.2,4.2,8.6,6.4-5.4-1.2-12.4-1.2-17.2-1.2a4.65,4.65,0,0,0,2,.8C482.33,98.05,487.73,99.45,487.73,99.45Zm-93.8,19c1.4-.2-.6-.4,1-.6C396.33,117.65,394.93,118.85,393.93,118.45Zm25.2-10.4c-1.2.8,0,1.2-.2,2C420.13,109.25,418.73,108.85,419.13,108Zm33.2,14.4c0-.4-.2-.8.2-.8,0,.4.2,1.2.6.6-.6-.2-.2-1-1-1.2C451.93,121.25,451.93,122.65,452.33,122.45Zm.6,2.4c-1-.2.4-1,.4-.8.6-1.8-.8-.2-1.2-.8C452.33,123.85,451.93,124.85,452.93,124.85Zm1,5.8c0,.2.2.6.6.4-.6-1.4-.4-3-1.2-3.6.2.2.6,1,0,1,.4-.4-.4-.6-.4-.2.8.6-.2,2.4,1,2.8Z"/><path d="M603.33,155.25c-1,1.8-2,2-3,1.8-.4,0-.6-.2-.8-.2l-.6-.6a3.76,3.76,0,0,0-1.6-.4h-1c-.6,0-.8-.2-1.2-.2h-5.2c-1-.2-2-.2-2.8-.4a13.94,13.94,0,0,1-9.6-4.8,8.76,8.76,0,0,1-3.8-1.4l-3-2-2.8-2.8c-.8-.8-2-1.8-3-3l-3.6-2.2c-1.2-.8-2.6-1.4-3.4-2.4-8.2-8-14.2-17-19.8-26.8a12,12,0,0,1-1.6-3.2,29.28,29.28,0,0,0-2.6-5c-.6-1.4-.8-.4-1.6.4a5.27,5.27,0,0,0-.2-1.4,3.43,3.43,0,0,0-.2,1.6c-.4-1.2-.2-.6-.6-.2a4.07,4.07,0,0,0-.2-1c-.4,1.2-.4-.8-.4.8-1.2-2-2.2-.4-3,0-.2-.2-.2-.6-.2-1.4-.4,1.6-.8.2-1,1.2-1-1.4-1.6-1-2.6-.4-.2.2-.2-.6-.2-1-.6.2-.8-.4-.6.8-1.6-3-2.8.2-3.8-2-.4,0,0,1-.4.8V99h-.2c.6,3.8,1.2,7.8,1.8,11.8,1.6,8.8,3.8,17.4,5.4,24.8.4,2.2,1.2,3.8,1.6,5.4a7.44,7.44,0,0,1,1,4.6c-1.4-1.8-2.6-3.8-3.8-5.6a14.35,14.35,0,0,0-2.2-3,22.15,22.15,0,0,0-2.2-2.8,59,59,0,0,1,.4,8.4v2a7.65,7.65,0,0,1,.6,2,18,18,0,0,0,1.2,4.4c-8.4-2-13-9.2-17-18a10.47,10.47,0,0,0-2.2-3.8,37.12,37.12,0,0,1-2.2-3.8,4.47,4.47,0,0,1-.6-2,13,13,0,0,1-.4-2.2l-.6-4.6c-.6-2-1.4-3.8-2-5.4-.6-2-1.6-3.8-2-5.6-.6-2.8-1-5.6-1.8-8.6l-1.4-8.8a133.26,133.26,0,0,1-1.4-17.8,107.66,107.66,0,0,1,4.8-34.4c.8,1.2.8,3.4,2.4,4,.6-6.6,2.6-15.8,4.2-22.4,1.2,4.2.6,9,.4,11.4-.4-.2-.2-1-.2-1.6-1.8,1-.2,3,0,4,1.8-1.8,1.6-5.4,2.6-7.8,1.4.8,0,3.8.8,5.2.8-2.4,1.8-5,3.2-8.2a49,49,0,0,0-5.4-.4c.4-1.4,1.8-.8,2.8-.8-.6-1.2-1.2-.2-1.6-1-.4-3.4,1.8-.2,2-2.6-1.8-.6-2.4,1.4-4.6-.8-.6-2.6.4-3.8,1-4.2,0-.4-.2-.6-.4-.4,2.4-2.6,6-5,8.8-5.2.2-.4.2-1,.4-1.6,4.8.2,9.4,0,14.4.2,4.8.6,10,1.2,14.8,3.2a18,18,0,0,1,6.6,1.8,49.57,49.57,0,0,1,6.4,3.4,23.33,23.33,0,0,1,6.4,4.8l1.2,1.4a6.38,6.38,0,0,1,1.2,1.4l2.2,2.8c.2-.2.2,0,.4.2.6-.2.2-.4,1-.8-.6,1.6-.2,2.2.6,2.8.4.4,1,1.2.8,1.8l1.4-.4c-.6.6-.6.2.2.4-1.2.4-1.4,1-.8,1.4,1.2-.4.6-.4,1.4-.8.6.2-.4.6-1.4,1.2-.2.8,2,1,1,2.2.4-.2.2.6,1.2,0-.8,1.2-.4,1.6.2,2a5.15,5.15,0,0,1,2.4,1c-.6.4-.8.8-1.6.8.6.2-1.2,1.6.8.8,0,.2-1,.6-.8.8.4.2.8-.6,1.2-.2a2.55,2.55,0,0,0-1.2.8c1.4,1.6.4,2.4,1.2,4.2,1.2,0,0-.6,1-.6,1.2-.2-.8.8-1,1v.8c.2.4,1.8.4.2.6.2.4,1.2-.2,1.6,0,.4.4-1.2,1.2,1,1,0,.2-1.2.2-1.8.2-.4.2.8.4-.4.4.4,1.2-.8,2.8,1.2,4-.8.2-.2-.2-.8-.2-.4.6-.6.8.6,1.2-1.6,0,.2.6-.6,1a1.52,1.52,0,0,0,1.4.2c0,.4-1,.4-2,.4.2.4.8.6.6,1v.8c.8,0,.8-.4,1.6,0-1.2,0,.8.6-.6.6h.6c.8.2-.6.4-.6.6-.6-.4-.2-.8-.6-1-.8.6-.4.8-.4,1.4.8.2.8,0,1.6,0-.6.4.2.6-.2,1.6-.8,0-.6-.2-1.2-.4-1,0-.8.6-.2.8.2.4.6,0,1.2.2.6.4-1.2.2-1.6.6.8.2,1,.6,2,.6,0,.2-1.6,0-.6.2-.2.4-1,0-.6-.2-1,.2-1.2.6-1.2,1s1.8.4,1.6.8c-.8,0-.6-.4-1.4-.4,0,1-.4,1.6-.4,2.4a3.4,3.4,0,0,0,.2,1.4,5.08,5.08,0,0,0,.4,1.4c-1.2,0-.2.2-1,.8,1,.2.8-.6,2.6.2-2.2-.2-1,2-1.6,2.8,0,.2-1-.2-1.4-.4-.2.2.2.2.2.4.2.4.4-.2,1.2.4-.4.4-1,0-1.8-.4,1.6,1-1.8.6.8,2-.2.2-.8.2-1.6,0,.2.6,1.2,1.2,2,2-.6,0-2.2-.8-2.2,0,.4.6,1-.4,1.4.4-.2.4-.6,0-1.4-.2,0,.4,0,.6-.6.6,0,.2.4.4.2.6,1.6.4,0-1,1.6-.6.2.4-1,.6-.2,1.2-1-.4-1.4-.6-1.8-.4-.2,0,.4.2.8.8-1.6,0-2.6,1.2-1.6,2.4-2,.2-1.4,2.8-2.4,3.2.6.8.6,0,1.4.6-1,.2-3.8-.2-2,2.2-.2.2-1.2-1.4-1.2-.6.2.6,1.2.6,1.4,1.2,0,.8-.8-.2-1.6-.8-.2.4,1,.8,1,1.2s-.4-.2-.8-.4a3.72,3.72,0,0,1,.6.8c-.8,0-1.6,0-.8,1-.2.4-1.4-.8-1.4-.6-.4.2,0,.6.6,1.2-.6,0-.2.8-1,1.2-.4-.4-.4-.8-.8-1.2.6,1.2-1,0-.8,1.2,1,.8,1.2.4,1.6,1.2-1-.4-.8.4-1,1.2a3.53,3.53,0,0,1-1.8-1.6c-.4.2,0,.6.2,1.2.4.4,0-.4.2-.4.6.8,0,1-.2,1.2l-.8-1.2a1.25,1.25,0,0,0-1,.6c-.2.4,1.2,1.4,1.2,1.8-.8-.4-1.2,0-2-.8,0,.6.6.6,1,1.2-.8.2-.8,2-2.6.2-.2.2,0,.8.2,1.2-.4,0-.8-.8-1-.8a.89.89,0,0,0,0,1c-1.2-1-1.4-.4-1.8,0,.4.8,1,1.4,1,.8.2,1-.4,1.2-.8,1.2,0,.2.2.4.4.6l6.4,11c2.2,3.8,4.4,7.6,6.4,10.6,2.8,4.6,6.2,8.8,9,13,3.2,4,6.8,7.4,9.8,10.8a9.62,9.62,0,0,1,1.8,2.2l1.6,2.2a14.57,14.57,0,0,0,1.8,2,8.14,8.14,0,0,0,1.8,2A68.63,68.63,0,0,0,603.33,155.25Zm-50.8-106.2a8.46,8.46,0,0,1-.6-2.4,7.5,7.5,0,0,0-.2-2c.2.2.2.4.2.8,0-.6,0-1-.2-1.2v.4c0-.8-.2-1.4-.2-2.2l-.6-2.4a4.73,4.73,0,0,0-1.2-1.8,6.66,6.66,0,0,0-.6-1.2,2.76,2.76,0,0,0-.6-.8l-.6-1.2a1.41,1.41,0,0,1-1-.8c-.2-.2-.4-.6-.8-.8l-.6-1.2c-2.6-3.2-7.4-5.2-13.2-6.2-4.8-1-10-1.4-15.8-2,.2,8.4-.2,17.8-.6,27.8-.2,5.4-.2,11.2,0,16.8a43.54,43.54,0,0,0,.4,7.2,23.52,23.52,0,0,0,8,2,33.4,33.4,0,0,0,10-.2,25.31,25.31,0,0,0,8.6-3.6,14.21,14.21,0,0,0,5.4-6,32.24,32.24,0,0,0,3.6-8.4A22.73,22.73,0,0,0,552.53,49.05Zm-36-25.8a25.47,25.47,0,0,0,4-.2c-1.2-2.4-2.6-1-3.6-1h-.4Zm2.4,73.4a2,2,0,0,0-.8-1.6,4.4,4.4,0,0,0,.2,1.6Zm1.2-.2c-.2-.8-.8-.8-1,0C519.53,95.85,519.93,97.65,520.13,96.45Zm14,5.6a.62.62,0,0,1-.2-.4Zm38.6-36.4c.2.2-.2.8,1,.8C572.53,66.45,573.93,65.45,572.73,65.65Zm1.6-13.8a6.66,6.66,0,0,1,2,0A3.24,3.24,0,0,1,574.33,51.85Z"/></g></g></svg>