<svg xmlns="http://www.w3.org/2000/svg" viewBox="0 -0.5 32 32" shape-rendering="crispEdges">
<metadata>Made with Pixels to Svg https://codepen.io/shshaw/pen/XbxvNj</metadata>
<path stroke="#fbd836" d="M15 2h1M5 5h1M26 5h1M16 6h1M8 8h1M13 8h3M17 8h1M12 9h7M10 10h9M9 11h11M9 12h13M8 13h15M8 14h16M3 15h2M8 15h16M29 15h1M8 16h15M8 17h15M8 18h15M9 19h13M9 20h13M11 21h10M13 22h6M23 23h1M7 24h1M15 25h1M26 25h1M4 27h1M16 29h1" />
<path stroke="#ffbf12" d="M16 3h1M15 4h1M15 5h1M25 5h1M7 6h1M25 7h1M16 8h1M11 9h1M19 9h2M19 10h1M20 11h2M22 12h1M23 13h1M26 15h1M23 16h1M25 16h1M28 16h1M22 19h1M10 21h1M21 21h1M11 22h2M19 22h2M13 23h5M6 24h1M24 24h1M25 25h1M6 26h1M26 26h1M16 27h1M27 27h1M15 28h1" />
<path stroke="#ffa412" d="M4 4h1M16 4h1M27 4h1M5 6h2M25 6h1M7 7h1M24 7h1M23 8h1M20 10h1M22 11h1M6 15h1M27 15h1M2 16h1M4 16h2M27 16h1M8 23h1M6 25h1M24 25h1M5 26h1M16 26h1M15 27h1" />
<path stroke="#df5826" d="M18 8h1M21 10h1M23 17h1M23 18h1M22 20h1M18 23h1" />
</svg>