<svg xmlns="http://www.w3.org/2000/svg" viewBox="0 -0.5 32 32" shape-rendering="crispEdges">
<metadata>Made with Pixels to Svg https://codepen.io/shshaw/pen/XbxvNj</metadata>
<path stroke="#99c9e7" d="M13 9h1M12 11h1M10 12h1M14 12h1M13 13h2M10 14h1M12 14h2M15 14h1M9 15h1M13 15h2M9 16h2M14 16h1M17 16h2M9 17h1M16 17h1M21 17h1M10 18h1M15 18h1M14 21h1M17 21h1" />
<path stroke="#deeffa" d="M14 9h2M12 10h3M11 11h1M13 11h2M11 12h3M9 13h4M15 13h1M9 14h1M11 14h1M14 14h1M10 15h3M15 15h3M21 15h1M11 16h3M15 16h2M19 16h3M10 17h6M17 17h4M11 18h4M16 18h5M11 19h9M12 20h7M13 21h1M15 21h2" />
</svg>