<svg xmlns="http://www.w3.org/2000/svg" viewBox="0 -0.5 32 32" shape-rendering="crispEdges">
<metadata>Made with Pixels to Svg https://codepen.io/shshaw/pen/XbxvNj</metadata>
<path stroke="#e1e9f0" d="M24 2h5M30 2h1M1 3h2M7 3h2M12 3h2M17 3h1M21 3h1M12 4h3M16 4h5M26 4h2M1 5h1M7 5h6M18 5h1M23 5h1M28 5h4M0 6h1M4 6h3M9 6h1M11 6h1M16 6h3M20 6h8M29 6h3M7 7h4M12 7h1M24 7h1M2 8h8M11 8h2M14 8h5M24 8h4M29 8h2M4 9h1M6 9h3M12 9h9M22 9h1M24 9h8M1 10h1M9 10h1M13 10h4M18 10h1M20 10h2M25 10h5M1 11h4M9 11h6M16 11h2M21 11h1M24 11h1M26 11h6M3 12h1M8 12h4M13 12h6M20 12h1M7 13h3M14 13h4M21 13h1M3 14h2M6 14h3M13 14h2M17 14h1M20 14h1M22 14h1M0 15h10M11 15h2M14 15h4M22 15h2M28 15h4M1 16h2M7 16h1M16 16h1M27 16h5M1 17h2M6 17h5M12 17h1M14 17h2M20 17h1M22 17h2M25 17h2M28 17h2M0 18h1M3 18h1M5 18h4M14 18h3M21 18h2M24 18h4M1 19h10M12 19h2M15 19h1M21 19h1M25 19h2M30 19h2M5 20h4M11 20h2M15 20h4M20 20h2M24 20h1M30 20h1M5 21h1M8 21h3M16 21h2M30 21h1M2 22h2M9 22h2M12 22h2M15 22h2M18 22h1M20 22h12M1 23h6M8 23h2M13 23h3M19 23h4M27 23h1M5 24h6M12 24h5M2 25h2M5 25h2M8 25h2M11 25h4M19 25h13M6 26h3M12 26h10M23 26h3M1 27h2M5 27h5M29 27h2M7 28h7M16 28h6M23 28h1M3 29h7M22 29h6M17 30h4" />
<path stroke="#d4e5f2" d="M7 6h1M6 7h1M11 7h1M13 7h1M10 8h1M5 9h1M10 9h2M3 10h2M6 10h1M22 10h1M7 11h1M22 11h1M25 11h1M2 12h1M4 12h1M21 12h1M25 12h2M28 12h1M18 13h1M23 13h2M27 13h2M1 14h2M18 14h1M29 14h1M4 17h1" />
<path stroke="#b7d6f1" d="M14 7h1M13 8h1M3 9h1M9 9h1M5 10h1M7 10h2M10 10h3M5 11h2M8 11h1M15 11h1M20 11h1M23 11h1M5 12h3M12 12h1M19 12h1M22 12h3M27 12h1M2 13h5M10 13h4M19 13h2M22 13h1M25 13h2M5 14h1M9 14h4M15 14h2M19 14h1M21 14h1M23 14h6M10 15h1M13 15h1M18 15h4M24 15h4M3 16h4M8 16h8M17 16h10M3 17h1M11 17h1M13 17h1M16 17h4M21 17h1M24 17h1M27 17h1M30 17h1M4 18h1M9 18h5M17 18h4M23 18h1M28 18h3M11 19h1M14 19h1M16 19h5M22 19h3M27 19h3M14 20h1M19 20h1M22 20h2M25 20h3M18 21h1M26 21h1" />
<path stroke="#76b5ea" d="M5 17h1M2 18h1M9 20h2M13 20h1M28 20h2M7 21h1M12 21h4M19 21h7M27 21h2M19 22h1M24 23h1M26 23h1" />
<path stroke="#539fee" d="M3 20h2M6 21h1M11 21h1M29 21h1M5 22h4M11 22h1M14 22h1M17 22h1M7 23h1M16 23h3M23 23h1M25 23h1M22 24h4" />
</svg>