<svg xmlns="http://www.w3.org/2000/svg" viewBox="0 -0.5 32 32" shape-rendering="crispEdges">
<metadata>Made with Pixels to Svg https://codepen.io/shshaw/pen/XbxvNj</metadata>
<path stroke="#d4e5f2" d="M7 6h1M11 6h1M6 7h3M11 7h3M5 8h1M7 8h1M9 8h2M5 9h2M10 9h4M15 9h2M3 10h2M6 10h1M9 10h1M22 10h1M2 11h2M7 11h1M16 11h2M21 11h2M24 11h3M2 12h1M4 12h1M14 12h1M17 12h2M20 12h2M25 12h2M28 12h1M15 13h2M18 13h1M23 13h2M27 13h2M1 14h2M18 14h1M29 14h1M2 16h1M4 17h1" />
<path stroke="#b7d6f1" d="M9 7h2M14 7h1M6 8h1M8 8h1M11 8h4M3 9h2M7 9h3M14 9h1M5 10h1M7 10h2M10 10h7M25 10h1M4 11h3M8 11h8M20 11h1M23 11h1M3 12h1M5 12h9M15 12h2M19 12h1M22 12h3M27 12h1M2 13h13M17 13h1M19 13h4M25 13h2M3 14h15M19 14h10M1 15h29M1 16h1M3 16h3M7 16h2M10 16h21M2 17h2M6 17h17M24 17h7M4 18h2M8 18h1M10 18h4M15 18h16M5 19h3M10 19h10M21 19h5M27 19h3M14 20h2M17 20h11M18 21h1M26 21h1" />
<path stroke="#539fee" d="M1 17h1M2 19h1M30 19h1M3 20h3M5 21h1M9 21h3M17 21h1M29 21h1M5 22h3M9 22h1M11 22h5M17 22h2M26 22h3M7 23h3M11 23h1M13 23h1M15 23h4M20 23h2M23 23h1M25 23h1M27 23h1M11 24h1M19 24h1M22 24h4M13 25h1M19 25h1M9 26h1M14 26h1M9 27h1M14 27h1M20 27h1M24 27h1M10 28h1M20 28h1M8 29h1M13 29h1M19 29h1M25 29h1M8 30h1M13 30h1M16 30h1M19 30h1M22 30h1M25 30h1M16 31h1M22 31h1M25 31h1" />
<path stroke="#76b5ea" d="M5 17h1M2 18h2M6 18h2M3 19h2M8 19h1M6 20h1M8 20h2M11 20h3M16 20h1M28 20h2M7 21h2M12 21h1M14 21h3M19 21h3M23 21h3M27 21h2M10 22h1M19 22h6M24 23h1M26 23h1" />
</svg>