<svg xmlns="http://www.w3.org/2000/svg" viewBox="0 -0.5 32 32" shape-rendering="crispEdges">
<metadata>Made with Pixels to Svg https://codepen.io/shshaw/pen/XbxvNj</metadata>
<path stroke="#919191" d="M7 6h1M11 6h1M6 7h3M11 7h3M5 8h1M7 8h1M9 8h2M5 9h2M10 9h4M15 9h2M3 10h2M6 10h1M9 10h1M22 10h1M2 11h2M7 11h1M16 11h2M21 11h2M24 11h3M2 12h1M4 12h1M14 12h1M17 12h2M20 12h2M25 12h2M28 12h1M15 13h2M18 13h1M23 13h2M27 13h2M1 14h2M18 14h1M29 14h1M2 16h1M4 17h1" />
<path stroke="#75838f" d="M9 7h2M14 7h1M6 8h1M8 8h1M11 8h4M3 9h2M7 9h3M14 9h1M5 10h1M7 10h2M10 10h7M25 10h1M4 11h3M8 11h8M20 11h1M23 11h1M3 12h1M5 12h9M15 12h2M19 12h1M22 12h3M27 12h1M2 13h13M17 13h1M19 13h4M25 13h2M3 14h15M19 14h10M1 15h29M1 16h1M3 16h28M2 17h2M6 17h25M4 18h2M8 18h23M5 19h3M9 19h21M7 20h1M14 20h2M17 20h11M18 21h1M26 21h1" />
<path stroke="#3b4f63" d="M1 17h1M2 19h1M30 19h1M3 20h3M6 21h1M9 21h1M11 21h1M17 21h1M7 22h2M12 22h4M18 22h1M25 22h4M9 23h1M13 23h3M17 23h1M19 23h2M22 23h2M27 23h1M23 24h3" />
<path stroke="#4f606e" d="M5 17h1M2 18h2M6 18h2M3 19h2M8 19h1M6 20h1M9 20h2M13 20h1M16 20h1M28 20h2M8 21h1M13 21h1M15 21h2M19 21h7M27 21h2M10 22h1M16 22h1M19 22h6M24 23h1M26 23h1" />
<path stroke="#f2e9d3" d="M8 20h1M11 20h2M5 21h1M7 21h1M10 21h1M12 21h1M14 21h1M29 21h1M5 22h2M9 22h1M11 22h1M17 22h1M7 23h2M16 23h1M18 23h1M21 23h1M25 23h1M22 24h1" />
<path stroke="#aca0e8" d="M11 23h1M8 24h1M10 24h1M17 24h1M21 24h1M8 25h2M11 25h1M18 25h1M20 25h1M9 26h1M12 26h1M19 26h2M8 27h1M13 27h1M21 27h1M8 28h2M13 28h1M20 28h1M22 28h1M7 29h1M10 29h1M14 29h1M19 29h1M23 29h1M7 30h1M9 30h1M14 30h1M20 30h1M22 30h1M7 31h1M13 31h1M20 31h1" />
</svg>