<svg xmlns="http://www.w3.org/2000/svg" viewBox="0 -0.5 50 10" shape-rendering="crispEdges">
<metadata>Made with Pixels to Svg https://codepen.io/shshaw/pen/XbxvNj</metadata>
<path stroke="#ffffff" d="M0 0h5M9 0h28M0 1h1M4 1h1M9 1h1M13 1h1M27 1h1M30 1h1M36 1h1M0 2h2M4 2h1M6 2h4M12 2h16M30 2h4M36 2h14M1 3h1M4 3h3M8 3h2M12 3h2M20 3h1M26 3h1M32 3h2M36 3h1M40 3h2M45 3h1M49 3h1M1 4h1M4 4h2M8 4h2M12 4h2M16 4h2M20 4h4M26 4h2M30 4h4M37 4h1M40 4h3M46 4h1M49 4h1M1 5h1M4 5h2M8 5h2M12 5h2M20 5h1M26 5h2M30 5h4M36 5h2M40 5h3M45 5h2M49 5h1M1 6h1M4 6h2M8 6h2M12 6h2M16 6h5M23 6h1M26 6h2M30 6h4M36 6h2M40 6h3M45 6h5M1 7h1M4 7h1M8 7h1M12 7h2M16 7h3M20 7h1M23 7h1M26 7h2M30 7h1M32 7h2M36 7h2M40 7h3M45 7h1M1 8h1M5 8h1M9 8h1M13 8h1M20 8h1M27 8h1M32 8h1M36 8h2M41 8h1M45 8h1M1 9h45" />
<path stroke="#000000" d="M1 1h3M10 1h3M14 1h13M28 1h2M31 1h5M2 2h2M10 2h2M28 2h2M34 2h2M2 3h2M7 3h1M10 3h2M14 3h6M21 3h5M27 3h5M34 3h2M37 3h3M42 3h3M46 3h3M2 4h2M6 4h2M10 4h2M14 4h2M18 4h2M24 4h2M28 4h2M34 4h3M38 4h2M43 4h3M47 4h2M2 5h2M6 5h2M10 5h2M14 5h6M21 5h5M28 5h2M34 5h2M38 5h2M43 5h2M47 5h2M2 6h2M6 6h2M10 6h2M14 6h2M21 6h2M24 6h2M28 6h2M34 6h2M38 6h2M43 6h2M2 7h2M5 7h3M9 7h3M14 7h2M19 7h1M21 7h2M24 7h2M28 7h2M31 7h1M34 7h2M38 7h2M43 7h2M2 8h3M6 8h3M10 8h3M14 8h6M21 8h6M28 8h4M33 8h3M38 8h3M42 8h3" />
</svg>